<svg xmlns="http://www.w3.org/2000/svg" viewBox="291 60.07 790.642 505.394">
  <defs>
    <style>
      .cls-1 {
        fill: #fff;
      }

      .cls-2 {
        fill: #1c3761;
      }

      .cls-3 {
        fill: none;
        stroke: #fff;
        stroke-miterlimit: 10;
        stroke-width: 1.219px;
      }
    </style>
  </defs>
  <g id="Group_169" data-name="Group 169" transform="translate(291.004 60.006)">
    <g id="Group_164" data-name="Group 164" transform="translate(-0.004 0.064)">
      <path id="Path_845" data-name="Path 845" class="cls-1" d="M27.774,209.59s289.084-93.541,656.9-5.171c0,0,9.636,2.35,14.1,3.76,3.055.94.94,14.337-3.76,15.512-9.166,2.35-309.767-91.426-657.843.94-.235,0-5.171,1.41-8.461,2.35,0,0-1.175.94-2.115-3.525-.47-2.35-.705-3.29-1.88-8.7A3.872,3.872,0,0,1,27.774,209.59Z" transform="translate(33.107 224.591)"/>
      <path id="Path_846" data-name="Path 846" class="cls-2" d="M73.49,111.923c-15.982-11.751-49.826,1.175-52.176,1.88-14.1,4.936-11.281,15.982-11.281,15.982L31.655,230.377s1.645,8.7,3.29,14.337c.47,2.115,1.41,9.4,13.162,7.051,2.35-.47,8.7-2.115,8.7-2.115,20.682-4.465,29.378-11.516,33.609-14.807a44.721,44.721,0,0,0,7.051-8.461c7.991-12.456,7.991-28.438,7.991-41.13C105.219,147.177,78.425,115.683,73.49,111.923ZM79.6,219.1c-5.641,7.756-20.682,10.811-23.738,11.751-4.7,1.175-5.641-4.7-5.641-4.7S30.95,138.481,30.95,137.071c0-1.88-2.585-7.991,7.286-10.576,13.4-3.525,22.328-2.82,26.558,1.41C70.2,133.075,79.13,150.467,83.6,168.8,85.476,177.026,88.532,206.4,79.6,219.1Z" transform="translate(13.244 144.342)"/>
      <path id="Path_847" data-name="Path 847" class="cls-2" d="M62.965,234.244l2.585-128.325s-.94-6.346,6.816-7.756c2.115-.47,11.046-1.41,11.751-1.41,5.406-.705,4.936,2.82,6.111,5.171,1.41,2.585,42.07,123.86,42.775,126.21.94,3.76.47,6.111-4.7,6.816-1.88.235-7.521,1.175-10.811,1.645-4.23.47-5.171-1.88-6.111-5.876-.94-3.29-25.383-85.08-26.088-87.2-.47-1.88-2.115-1.41-2.35-.235-.235,1.88,2.35,87.2,2.35,87.2S86.468,240.59,82,241.53c-1.88.47-15.747,2.82-15.747,3.055C62.5,245.29,62.73,241.06,62.965,234.244Z" transform="translate(84.876 130.369)"/>
      <path id="Path_848" data-name="Path 848" class="cls-2" d="M153.471,90.419s-44.42,3.76-47.711,4.231c-1.41.235-9.871.47-8.7,19.272.94,17.157.94,40.66,2.35,53.116.235,2.35,1.645,9.166,11.986,7.991,3.76-.47,22.563-2.82,31.259-1.88,2.115.235,4.466.94,4.7,4,.705,5.171.47,2.82,1.175,13.867.94,12.692.705,15.512.705,17.627.47,5.641-1.175,8.931-5.406,9.4-1.645.235-20.918,2.35-29.379,2.585-7.521.235-7.756,5.171-7.756,5.876,0,3.76-.235,5.876,0,7.991.235,1.88.235,6.111,5.876,5.171,2.35-.47,42.54-3.76,49.826-4.231.94,0,7.286.47,6.816-9.871-.705-16.687-2.585-50.531-4.936-62.282-1.175-5.406-4.23-8.931-10.341-8.931-5.876,0-30.084.94-31.729.94s-4.7.705-4.7-4.7c0-4-.47-10.811-.47-15.512V116.037c0-2.82,1.41-5.876,4-6.111,5.171-.705,34.549-1.41,36.9-1.88,3.76-.94,2.35-8.226,1.88-12.691C158.641,91.124,156.056,90.184,153.471,90.419Z" transform="translate(130.921 121.895)"/>
      <path id="Path_849" data-name="Path 849" class="cls-2" d="M166.451,234.751c-5.171,0-5.406-1.175-5.641-7.521-.705-17.862-1.41-125.035-1.41-125.035s.94-13.632,10.106-13.161c1.645,0,39.485-.235,54.056.235,4,.235,4.466,3.76,4.466,5.876,0,4.231-.235,5.641-.235,8.7,0,4-1.175,5.406-4.23,5.171-2.35,0-30.554-1.175-40.66-1.175-2.82,0-3.055,3.76-3.055,4,0,2.82,0,13.867.705,24.208.235,4.465,1.41,4.7,7.051,4.935,8.226.235,25.853-.47,34.314-.235,3.761.235,3.29,3.525,3.525,5.406,0,1.41,0,3.525-.235,9.636a5.542,5.542,0,0,1-5.876,5.17c-3.525-.235-24.208-.94-34.079-.7,0,0-4,0-4,5.406.235,4.936.47,9.871.47,13.632,0,8.7-.235,25.148,0,29.849v20.212c0,1.175.47,5.406-4.466,5.406C175.852,234.516,166.451,234.751,166.451,234.751Z" transform="translate(215.243 119.99)"/>
      <path id="Path_850" data-name="Path 850" class="cls-2" d="M203.721,235.833s-5.876.235-5.406-8.226c1.175-19.507,8.7-130.911,9.636-133.261,2.115-5.171,3.76-4.23,14.572-3.525,0,0,5.876,0,5.641,5.171,0,1.175-4.7,128.56-4.936,130.675,0,1.645-.47,9.871-4.7,10.106C215.943,236.538,212.182,236.773,203.721,235.833Z" transform="translate(267.753 121.729)"/>
      <path id="Path_851" data-name="Path 851" class="cls-2" d="M203.2,81.275v8.931c0,7.991,2.82,7.521,4.466,7.756,2.35.235,7.286.235,11.046.705,4,.235,4.466-2.35,4.7-4,.235-1.175,0-.47.235-8.931.235-7.991-1.41-9.166-4.466-9.4-2.585,0-6.346-.235-10.811-.235C202.966,75.87,203.2,80.805,203.2,81.275Z" transform="translate(274.384 102.601)"/>
      <path id="Path_852" data-name="Path 852" class="cls-2" d="M261.633,95.458c3.29.47,22.328,2.585,36.194,5.406,5.171,1.175,5.171,2.82,4.935,6.111-.47,4.466-.94,6.346-1.175,9.166-.47,2.82-.705,5.406-5.876,4.7-2.35-.235-11.046-1.645-20.683-2.115-5.171-.235-4.7,3.76-5.171,7.286-.47,4.7-.94,5.171-2.115,16.687l-3.055,28.673c-.47,4.7-1.645,18.332-1.88,22.093-.94,8.461-1.88,20.682-2.115,25.383,0,0-1.645,16.217-1.645,17.392-.235,1.41-.705,4.7-4,4.465-1.175,0-13.632-1.645-13.632-1.645-4-.47-4.466-3.055-4-6.581,0,0,11.516-105.057,11.987-106.468.705-4.7.47-8.931-2.35-10.106-2.115-.705-13.162-1.41-19.507-2.115-4.23-.47-4.7-3.055-4.7-4.23,0-3.055-.47-12.692.705-15.277,1.645-3.525,8.461-1.88,11.987-1.645C253.172,94.283,261.633,95.458,261.633,95.458Z" transform="translate(300.797 124.143)"/>
      <path id="Path_853" data-name="Path 853" class="cls-2" d="M254.289,226l43.95-121.744s1.175-6.346,9.166-5.171c2.115.235,11.046,2.115,11.752,2.35,5.171,1.175,3.76,4.231,4.23,7.051.47,3.055.235,131.851,0,134.2-.47,3.761-1.645,6.111-6.816,5.171-1.88-.235-7.521-1.41-10.811-2.115-4.23-.94-4.23-3.29-4-7.521.235-3.525,3.29-89.311,3.29-91.661,0-1.88-1.645-1.88-2.115-.94-.94,1.645-25.853,84.14-25.853,84.14s-2.115,9.871-6.816,9.636c-2.115-.235-15.982-2.35-15.982-2.35C250.294,236.34,251.939,232.344,254.289,226Z" transform="translate(340.105 133.444)"/>
      <path id="Path_854" data-name="Path 854" class="cls-2" d="M374.633,116.368s-42.775-9.871-46.066-10.341c-1.41-.235-9.4-2.585-13.866,15.747-4,16.452-10.811,38.545-13.162,50.766-.47,2.35-1.176,9.166,8.931,11.046,3.525.705,22.092,3.76,29.848,7.286,2.115.94,3.76,2.115,3.29,5.171-.705,5.171-.235,2.82-2.82,13.4-2.82,12.222-3.761,14.807-4.23,16.687-1.175,5.406-3.76,8.226-7.991,7.286-1.645-.235-20.447-3.76-28.438-6.111-7.286-2.115-8.931,2.585-8.931,3.29-1.175,3.525-1.88,5.406-2.35,7.521-.47,1.88-1.645,5.876,4,6.581,2.35.235,41.13,8.7,47.946,10.341.94.235,6.581,2.585,9.166-7.521,4.23-15.982,12.221-48.181,13.4-59.932.47-5.406-1.41-9.4-7.051-11.281s-28.439-7.756-30.084-8.226c-1.41-.47-4.7-.705-3.055-5.876,1.175-3.76,2.82-10.106,4-14.572,1.645-5.641,4-12.456,5.641-17.862.7-2.585,2.585-4.465,4.936-4.23,5.171.705,31.259,9.4,33.609,9.636,3.761.235,5.876-8.226,6.816-12.692C378.628,118.248,377.218,117.073,374.633,116.368Z" transform="translate(389.451 142.717)"/>
      <path id="Path_855" data-name="Path 855" class="cls-2" d="M99.2,124.9" transform="translate(133.956 168.499)"/>
      <g id="Group_160" data-name="Group 160" transform="translate(0 80.905)">
        <path id="Path_856" data-name="Path 856" class="cls-2" d="M19.588,64.027a.637.637,0,0,0,.94-.47c0-.47-8.931-23.5-9.4-24.443-.94-1.645-4.466.705-3.29,3.29C7.836,42.4,19.353,63.557,19.588,64.027Z" transform="translate(10.269 -28.979)"/>
        <path id="Path_857" data-name="Path 857" class="cls-2" d="M20.046,67.656c.47,0,1.175,0,1.175-.235,0-.47-3.525-28.908-3.525-28.908a4.431,4.431,0,0,0-4.7-4c-1.41.235-3.29,2.35-2.35,5.406,0,0,7.991,27.733,7.991,28.2C19.106,68.126,19.576,67.656,20.046,67.656Z" transform="translate(14.041 -34.488)"/>
        <path id="Path_858" data-name="Path 858" class="cls-2" d="M20.147,62.4c.235.47,1.175-.47.94-.705S8.866,42.419,8.4,41.479c-.47-.705-4.7,1.41-2.82,3.76C5.81,45,19.912,61.927,20.147,62.4Z" transform="translate(6.89 -25.233)"/>
        <path id="Path_859" data-name="Path 859" class="cls-2" d="M21.049,61.122c.235.235.94-.235.705-.705L5.773,44.435c-.47-.47-4.466,1.88-2.585,3.525C3.187,47.725,20.579,60.887,21.049,61.122Z" transform="translate(3.637 -21.138)"/>
        <path id="Path_860" data-name="Path 860" class="cls-2" d="M21.154,60.776c.235.235.94-.705.47-.94S4,47.379,3.527,46.909c-.705-.235-3.76,2.115-1.88,3.29C1.411,50.2,20.919,60.541,21.154,60.776Z" transform="translate(1.418 -17.737)"/>
        <path id="Path_861" data-name="Path 861" class="cls-2" d="M20.922,60.511c.47,0,.705-.47.235-.94C20.922,59.1,2.59,49.7,1.885,49.7S-1.17,51.815.71,52.99C.945,52.99,20.452,60.511,20.922,60.511Z" transform="translate(0.004 -13.947)"/>
        <path id="Path_862" data-name="Path 862" class="cls-2" d="M1.142,55.486s18.567,4.7,19.037,4.936c.47,0,.47-.235.47-.94S1.847,52.43,1.142,52.43C.437,51.96-.973,54.78,1.142,55.486Z" transform="translate(0.042 -10.331)"/>
        <path id="Path_863" data-name="Path 863" class="cls-2" d="M20.648,60.427a1.413,1.413,0,0,0-.235-.94l-.235-.235c-.47-.235-17.627-3.76-18.332-4-.94-.235-1.175,0-1.41.235a3.088,3.088,0,0,0,.705,2.35,2.462,2.462,0,0,0,1.41.705s17.392,1.88,17.627,1.88Z" transform="translate(0.513 -6.576)"/>
        <path id="Path_864" data-name="Path 864" class="cls-2" d="M19.865,60.214c-.47-.94-.47-1.41-.705-1.41-.47,0-16.922-1.41-17.157-.235,0,.47-.235,3.29,2.35,3.055C4.353,61.389,20.335,61.389,19.865,60.214Z" transform="translate(2.706 -2.603)"/>
        <path id="Path_865" data-name="Path 865" class="cls-2" d="M19.272,60.929c-.235-.235-.235-.47-.47-.705-.235-.47-.705-.47-1.645-.235-2.82.235-12.456,1.88-13.4,2.585-.47.235.705,2.82,2.35,2.585A89.909,89.909,0,0,0,18.1,62.1C18.567,61.869,19.742,61.634,19.272,60.929Z" transform="translate(4.945 -0.262)"/>
        <path id="Path_866" data-name="Path 866" class="cls-2" d="M19.254,62.709a4.058,4.058,0,0,0-.705-.94c-.47-.47-.94-.235-1.41-.235-.235,0-10.341,3.76-10.341,3.76s-.705.235-.47.705C6.8,66.7,7.5,69.055,11.5,67.644c0,0,5.641-2.82,6.816-3.29C20.194,63.414,19.254,62.709,19.254,62.709Z" transform="translate(8.488 1.953)"/>
        <path id="Path_867" data-name="Path 867" class="cls-2" d="M17.75,64.225c.235-.47,2.115-24.443,2.115-24.443,0-2.82-4.231-3.525-4.466-1.88,0,1.175.94,25.618,1.175,26.323C17.045,64.7,17.75,64.46,17.75,64.225Z" transform="translate(20.803 -31.057)"/>
        <path id="Path_868" data-name="Path 868" class="cls-2" d="M18.575,62.823c.235-.47,6.346-21.623,6.346-21.623.94-2.82-4-3.055-4-2.115S17.4,62.118,17.4,62.588,18.575,63.528,18.575,62.823Z" transform="translate(23.503 -28.95)"/>
        <path id="Path_869" data-name="Path 869" class="cls-2" d="M19.832,62.039c.235-.235,11.046-19.272,11.046-19.272.94-2.115-3.525-2.82-3.76-2.115S19.127,61.1,19.127,61.569C18.892,62.274,19.6,62.51,19.832,62.039Z" transform="translate(25.772 -26.521)"/>
        <path id="Path_870" data-name="Path 870" class="cls-2" d="M21.262,61.742C21.5,61.507,34.893,44.35,34.893,44.35c1.175-1.88-2.585-2.82-3.055-2.115-.47.47-11.281,18.567-11.516,19.037C20.086,61.507,21.027,61.977,21.262,61.742Z" transform="translate(27.398 -24.343)"/>
        <path id="Path_871" data-name="Path 871" class="cls-2" d="M21.627,60.982c-.235.47.47.94.705.705S37.609,46.645,37.609,46.645c1.41-1.88-1.645-3.055-2.35-2.585C34.789,44.53,21.627,60.511,21.627,60.982Z" transform="translate(29.147 -21.703)"/>
        <path id="Path_872" data-name="Path 872" class="cls-2" d="M22.5,60.779c.235.705.47.94.94.705C23.677,61.249,38.954,49.5,38.954,49.5c1.645-1.645-.705-3.525-1.175-3.055C36.838,46.677,22.267,60.074,22.5,60.779Z" transform="translate(30.388 -18.445)"/>
        <path id="Path_873" data-name="Path 873" class="cls-2" d="M39.687,49.189c-.235-.235-.47-.235-1.41.235-.47.47-14.572,10.576-15.042,11.046L23,60.705a1.413,1.413,0,0,0,.235.94c0,.235.47,0,.47,0,.235-.235,15.277-8.931,15.277-8.931.705-.47.94-.94.94-1.175" transform="translate(31.065 -14.846)"/>
        <path id="Path_874" data-name="Path 874" class="cls-2" d="M23.3,59.63c-.235.235-.235.705,0,1.645,0,1.41,14.807-5.171,14.807-5.171,2.585-.94,1.175-3.525.94-3.76C38.343,51.4,23.771,59.395,23.3,59.63Z" transform="translate(31.234 -10.48)"/>
        <path id="Path_875" data-name="Path 875" class="cls-2" d="M24.41,58.321c-.705.235-1.41.47-1.41,1.175v.94c0,.705,1.175.705,1.645.705,2.585-.235,11.281-1.88,12.221-2.115,1.41-.47,1.41-3.29.94-3.29C36.867,55.265,27.231,57.616,24.41,58.321Z" transform="translate(31.065 -5.88)"/>
        <path id="Path_876" data-name="Path 876" class="cls-2" d="M34.792,58.7s-10.811.705-11.046.705a1.116,1.116,0,0,0-1.175.705,4.113,4.113,0,0,0-.235,1.175s-.47.94,1.175.94c1.175,0,7.521.235,7.521.235,4.231-.47,4-2.585,4-3.29C35.5,58.7,34.792,58.7,34.792,58.7Z" transform="translate(30.084 -1.794)"/>
        <path id="Path_877" data-name="Path 877" class="cls-2" d="M20.731,50.347A15.439,15.439,0,0,0,10.86,60.923C9.215,67.5,15.325,73.85,17.206,75.73c1.175,1.41,1.88.47,1.88.47a10.773,10.773,0,0,1,6.346-3.525,10.368,10.368,0,0,1,7.051.705s.94.47,1.645-1.41c.94-2.585,4-11.046-.235-16.217A15.135,15.135,0,0,0,20.731,50.347Z" transform="translate(14.297 -13.183)"/>
        <path id="Path_878" data-name="Path 878" class="cls-2" d="M38.988,72.762c-3.525-1.88-4-2.585-6.346-5.641-2.35-2.82-2.35-2.585-2.35-4,0,0,.235-.94-.94-1.175a9.945,9.945,0,0,0-6.581-.705,10.039,10.039,0,0,0-5.641,3.29,1.114,1.114,0,0,0-.235,1.41c.47,1.41.235,1.175-.47,4.7-.94,3.76-1.175,4.7-3.525,7.756" transform="translate(17.427 1.301)"/>
      </g>
      <path id="Path_879" data-name="Path 879" class="cls-1" d="M162.167,151.046c-1.41-1.41-19.507-13.162-20.212-14.1s-17.627-99.652-19.977-111.4c-3.055-15.747-4.7-18.567-12.221-17.157-4.466.94-57.582,11.751-61.342,12.456-11.046,2.115-7.991,14.337-7.991,14.337S58.05,143.29,59.225,149.4c1.88,9.166,6.581,12.456,12.456,11.751,4.7-.47,56.407-11.046,59.932-11.281,1.88,0,19.742,14.337,21.388,15.277,2.82,1.645,4,.47,5.171-1.175.94-1.645.235-.235,1.645-2.585,1.175-2.115,3.29-5.406,3.76-7.051A6.249,6.249,0,0,0,162.167,151.046ZM95.419,125.428c1.645,1.175,15.747,10.811,15.747,10.811s-30.084,4.7-31.259,4.7c0,0-1.88.235-2.115-.94a5.331,5.331,0,0,0-.235-.94S62.515,54.214,61.105,40.583a5.387,5.387,0,0,1,4.23-5.876c5.171-1.88,18.332-3.525,28.2-5.406,0,0,6.346-1.645,7.521,5.171,0,.235,20.212,87.43,20.447,88.605,0,0-11.986-8.931-17.392-12.221-.705-.47-4-2.82-6.581.235a89.316,89.316,0,0,0-5.876,7.991C90.954,121.2,92.6,123.548,95.419,125.428Z" transform="translate(54.067 10.738)"/>
      <path id="Path_880" data-name="Path 880" class="cls-1" d="M97.738,8.857s-8.461,1.175-6.816,9.636C91.392,21.078,114.895,140,115.835,144c1.645,7.286,5.876,7.051,14.572,6.111,7.521-.705,21.153-2.585,38.545-3.055,5.876-.235,7.521-5.876,6.816-11.751-2.115-18.8-9.871-125.035-10.106-127.62-.235-2.115-.235-6.111-5.171-5.876-2.35,0-5.641.47-11.986,1.175-.235,0-4.7.47-4.466,5.641,1.175,16.452,10.576,100.122,11.751,113.988.235,3.055-1.41,4.231-2.115,4.231-1.645.235-14.572,1.88-16.687,1.88-2.35.235-4-1.175-4.465-4C129.7,112.269,116.54,27.189,114.19,11.912c-.94-5.876-3.29-4.7-4.7-4.7C106.9,6.976,97.738,8.857,97.738,8.857Z" transform="translate(122.492 2.274)"/>
      <path id="Path_881" data-name="Path 881" class="cls-1" d="M141.3,14.25s.235,106,1.88,123.86c.7,7.756,6.346,8.7,6.816,8.7,23.268-.47,48.18-.94,53.586-1.175,6.111-.235,6.111-3.055,5.876-5.876v-8.7c0-3.29-.94-5.171-5.171-5.406-1.645,0-27.028.94-37.369.235-3.76-.235-3.29-5.406-3.29-5.876-.235-4.7-.47-23.738-.235-30.789.235-3.76,1.88-3.29,2.82-3.29,5.406.235,30.554.47,34.079,0,3.055-.47,3.29-4.7,3.29-5.641.235-6.111.235-9.636,0-11.046-.235-2.115-1.175-4.466-4.23-4.466-8.226-.235-23.033.705-31.259.47-6.111-.235-6.111-.705-6.581-4.936-.705-10.106-.235-29.849-.235-34.549,0-.235-.47-6.346,4-6.346,9.871-.47,37.6-.94,39.955-1.175,2.585-.235,3.29-1.41,3.525-4.936a71.168,71.168,0,0,0,.235-7.991c0-1.88.47-5.171-4.936-5.171-15.747-.47-51.471,1.175-53.116,1.175C142.24.619,141.3,14.25,141.3,14.25Z" transform="translate(190.803 -0.064)"/>
      <path id="Path_882" data-name="Path 882" class="cls-1" d="M189.945,146.008s-5.876.47-5.641-7.991c.47-19.507,3.76-131.146,4.7-133.5,1.88-5.171,3.76-4.231,14.337-4,0,0,5.876-.235,5.876,4.936V136.372c0,1.645,0,9.871-4.23,10.106A131.576,131.576,0,0,1,189.945,146.008Z" transform="translate(248.861 0.264)"/>
      <path id="Path_883" data-name="Path 883" class="cls-1" d="M214.811,147.285s-6.111.705-6.111-9.166c0-19.272,6.346-126.68,7.051-130.44,1.175-6.346,8.7-5.406,10.576-5.171,3.29.235,13.866-.94,16.452,4.7,1.175,3.055.94,2.115,1.88,4.7s19.272,47.476,20.448,47.711,9.636-15.277,11.281-17.392S292.135,15.9,293.075,14.494c2.115-2.585,3.761-4.466,6.816-4,2.82.47,16.922.47,16.922,8.226,0,2.115-12.927,130.675-13.4,132.321-1.175,3.055-2.35,5.171-6.581,4.7-2.585-.47-8.226-.94-12.457-1.645a5.213,5.213,0,0,1-4.7-6.111l.47-4.466s8.931-83.435,8.7-84.845-4.7,6.111-5.876,7.756c-.235.47-11.046,18.567-18.567,25.148-1.88,1.645-3.29,2.585-5.171.235-4.7-5.641-20.682-46.536-21.152-45.36s-5.406,80.144-6.111,95.421c-.235,5.171-3.055,6.816-4.7,6.816C226.327,147.99,220.921,147.52,214.811,147.285Z" transform="translate(281.812 2.982)"/>
      <path id="Path_884" data-name="Path 884" class="cls-1" d="M261.4,136.717,307.7,16.853s1.41-6.346,9.166-4.936c2.116.47,10.811,2.35,11.516,2.585,5.171,1.175,3.526,4.466,4,7.051.47,3.055-2.821,129.5-3.056,131.851-.47,3.76-4.231,3.29-8.931,3.055-4.466-.235-12.457,0-12.222-4.7.235-3.525,5.171-90.486,5.171-92.6,0-1.88-1.645-1.88-2.116-.94-.94,1.645-27.5,82.965-27.5,82.965s-2.35,9.871-6.816,9.4c-1.88-.235-15.981-2.585-15.981-2.585C257.167,146.823,259.048,142.828,261.4,136.717Z" transform="translate(349.448 15.665)"/>
      <g id="Group_163" data-name="Group 163" transform="translate(720.571 82.581)">
        <g id="Group_161" data-name="Group 161">
          <path id="Path_885" data-name="Path 885" class="cls-1" d="M307.324,46.01c-1.175.47-.7-2.35-.235-3.055a7.229,7.229,0,0,1,1.41-2.115,18.916,18.916,0,0,1,4-2.82c5.406-3.76,11.047-3.055,16.217-1.88,6.816,1.645,10.341,6.816,11.751,8.931a5.112,5.112,0,0,1,.7,2.585,4.786,4.786,0,0,1-.235,1.175c-.47,1.41-1.41,0-1.645-.47S336,42.25,327.771,40.134c-4-.94-9.871-1.645-15.277,2.115-2.585,1.88-3.76,2.82-4.231,3.055A4.361,4.361,0,0,1,307.324,46.01Z" transform="translate(-306.586 -35.201)"/>
        </g>
        <path id="Path_886" data-name="Path 886" class="cls-3" d="M314.7,38.2" transform="translate(-295.63 -31.151)"/>
        <path id="Path_887" data-name="Path 887" class="cls-1" d="M338.465,51.389c0-.47.94-1.88-1.88-5.171-2.35-2.585-5.641-5.876-11.516-6.816a21.83,21.83,0,0,0-16.687,5.171c-3.055,2.82-1.175,7.286-.705,9.636,0,0,.94,2.82,2.35,6.346.94,2.35,8.7-2.35,24.443,1.645,0,0,1.41.705,1.88-1.645C337.055,57.5,338.465,52.094,338.465,51.389Z" transform="translate(-306.469 -29.769)"/>
        <path id="Path_888" data-name="Path 888" class="cls-1" d="M308.807,52.862c-.47,1.645,13.162,35.489,13.162,35.489.235.47.235.705.47.705s.235-.235.235-.47l8.461-35.019c.47-1.88-1.175-2.35-1.645-2.585C318.913,48.631,309.747,50.042,308.807,52.862ZM322.2,74.72c-1.88.47-3.055-2.115-3.525-4.231s.235-5.171,1.88-5.406c1.88-.235,2.82,1.645,3.29,3.76S324.083,74.249,322.2,74.72Z" transform="translate(-303.604 -15.495)"/>
        <g id="Group_162" data-name="Group 162" transform="translate(37.376 8.426)">
          <path id="Path_889" data-name="Path 889" class="cls-1" d="M353.539,58.091c.94.94,1.645-1.88,1.645-2.585a18.73,18.73,0,0,0-.235-2.585,38.89,38.89,0,0,0-2.115-4.466c-3.055-5.876-8.461-7.991-13.4-9.166-6.816-1.645-12.457,1.175-14.572,2.35a4.419,4.419,0,0,0-1.88,2.115,3.977,3.977,0,0,0-.47,1.175c-.235,1.41,1.175.705,1.645.47s5.641-4,14.1-1.88c4,.94,9.4,3.29,12.456,8.931l2.35,4.7S353.069,57.386,353.539,58.091Z" transform="translate(-322.489 -38.786)"/>
        </g>
        <path id="Path_890" data-name="Path 890" class="cls-3" d="M329,41.8" transform="translate(-276.321 -26.29)"/>
        <path id="Path_891" data-name="Path 891" class="cls-1" d="M322.97,47.857c.235-.47,0-2.115,4-3.76a18.045,18.045,0,0,1,13.4-.47c7.991,2.82,11.751,10.576,12.457,12.456,1.41,3.76-2.35,7.051-3.76,8.7,0,0-2.115,2.115-4.936,4.466-1.88,1.645-6.581-6.111-22.328-10.106,0,0-1.41,0-.94-2.35C321.325,53.968,322.5,48.562,322.97,47.857Z" transform="translate(-287.449 -25.297)"/>
        <path id="Path_892" data-name="Path 892" class="cls-1" d="M327.776,51.421a2.321,2.321,0,0,0-2.82,2.115l-8.7,33.844c0,.235-.235.47,0,.47s.235,0,.705-.47c0,0,27.028-22.8,27.5-24.208C345.639,60.822,338.587,53.771,327.776,51.421Zm-4,18.332c1.41-1.645,4.23-3.525,5.641-2.585,1.41,1.175.705,4.231-.705,6.111-1.41,1.645-3.761,4-5.406,2.585C321.9,74.688,322.371,71.4,323.781,69.753Z" transform="translate(-293.665 -13.348)"/>
      </g>
    </g>
    <g id="Group_168" data-name="Group 168" transform="translate(187.322 441.452)">
      <g id="Group_165" data-name="Group 165" transform="translate(0 19.951)">
        <path id="Path_893" data-name="Path 893" class="cls-1" d="M88.153,199.985c0-.235,0-.235-.235-.47a9.987,9.987,0,0,0-2.35-3.055s-.235-.235-.235,0a6.606,6.606,0,0,0-.705,3.525.863.863,0,0,0,.235.7C85.1,202.806,88.623,201.866,88.153,199.985Z" transform="translate(-73.111 -196.356)"/>
        <path id="Path_894" data-name="Path 894" class="cls-1" d="M82.05,209.316a.23.23,0,0,0-.235.235,9.868,9.868,0,0,0-2.115,3.055.23.23,0,0,0,.235.235,11.09,11.09,0,0,0,3.525-.47c.235,0,.47-.235.705-.235C85.341,210.961,83.46,208.376,82.05,209.316Z" transform="translate(-79.7 -179.128)"/>
        <path id="Path_895" data-name="Path 895" class="cls-1" d="M94.588,209.717h.47a8.386,8.386,0,0,0,3.76-.705s.235,0,0-.235a6.754,6.754,0,0,0-3.055-2.115c-.235,0-.47-.235-.705-.235C93.177,205.956,92.707,209.247,94.588,209.717Z" transform="translate(-61.214 -182.819)"/>
        <path id="Path_896" data-name="Path 896" class="cls-1" d="M108.953,222.1c-3.29-1.88-.94-7.756.235-7.991a1.028,1.028,0,0,0,.705-.94s.235-.705-1.645-1.645-2.82-1.175-5.641-.94c-.94.235-1.88.47-2.585.705a5.139,5.139,0,0,0-1.175.705h-.235a.23.23,0,0,1,.235-.235c.235-.47.705-1.175.94-1.645,1.175-2.82,2.35-4.7,1.175-7.756a7.054,7.054,0,0,0-2.35-3.055,4.983,4.983,0,0,0-1.645-.705h-.94c-.705.235-.47.705-.47.705.235,1.645-3.29,2.35-3.29,2.35s-3.055.47-3.525-.94a1.018,1.018,0,0,0-.94-.47,1.763,1.763,0,0,0-1.41.705,5.843,5.843,0,0,0-1.175,1.645,6.094,6.094,0,0,0-.47,3.525c.235,3.055,2.115,4.7,4.465,6.581.47.47.94.7,1.41,1.175a.23.23,0,0,1,.235.235H89.211a8.449,8.449,0,0,0-2.585.47,8.535,8.535,0,0,0-5.406,3.055c-.94.94-.705,1.645-.705,1.645a1.575,1.575,0,0,0,1.645,1.175c1.175,0,4.7,2.35,3.76,6.581,0,0-.47,1.41,0,1.88.235.47,1.175.47,3.055-.235a9.12,9.12,0,0,0,4-3.055c.235-.47,1.88-2.585,3.525-2.82,1.645-.47,3.525,1.175,4.7,1.88,1.88,1.175,4.936.235,4.936.235a9.07,9.07,0,0,0,2.35-1.175C110.128,222.808,108.953,222.1,108.953,222.1Z" transform="translate(-78.635 -193.325)"/>
        <path id="Path_897" data-name="Path 897" class="cls-1" d="M90.3,209.336a2.065,2.065,0,0,1,1.645,1.41l.235.47a15.461,15.461,0,0,0,1.41,2.82,15.09,15.09,0,0,0,2.35,3.055c.235.235.705.47.94.94.705.47,1.41,1.175,2.115,1.645-.47.235-1.175.235-1.645.47-.94.235-2.115.47-3.055.705-.47.235-1.175.235-1.645.47h0c-.47.235-1.175.235-1.645.47-.94.235-2.115.47-3.055.705-.47.235-1.175.235-1.645.47a10.979,10.979,0,0,1,1.175-2.35c.235-.47.47-.705.47-1.175a10.646,10.646,0,0,0,.705-3.761,7.571,7.571,0,0,0,0-3.29v-.47a1.651,1.651,0,0,1,.94-1.88A.519.519,0,0,1,90.3,209.336Z" transform="translate(-70.788 -178.913)"/>
        <path id="Path_898" data-name="Path 898" class="cls-1" d="M91.4,205.5" transform="translate(-63.902 -184.008)"/>
      </g>
      <path id="Path_899" data-name="Path 899" class="cls-2" d="M104.326,198.3s4.466,29.144,5.641,34.079c.47,2.115,2.115,2.115,2.115,2.115,6.346-1.175,13.162-2.35,14.807-2.585s1.645-1.175,1.41-1.88c-.235-.94-.235-1.41-.47-2.35s-.47-1.41-1.645-1.175c-.47,0-7.521,1.41-10.341,1.645-.94,0-1.175-1.41-1.175-1.41-.235-1.175-1.175-6.581-1.41-8.461,0-.94.47-.94.705-.94,1.41-.235,8.461-1.175,9.4-1.41s.705-1.41.705-1.645a16.449,16.449,0,0,0-.47-3.055c-.235-.47-.47-1.175-1.41-.94-2.35.235-6.346,1.175-8.7,1.41-1.645.235-1.645,0-2.115-1.175a65.3,65.3,0,0,1-1.41-9.4s-.47-1.645.705-1.88c2.585-.47,10.341-1.88,11.046-2.115s.94-.47.705-1.41a8.1,8.1,0,0,0-.235-2.115c0-.47,0-1.41-1.645-1.175-4.466.47-14.1,2.585-14.572,2.585C103.855,194.537,104.326,198.3,104.326,198.3Z" transform="translate(-46.509 -181.767)"/>
      <path id="Path_900" data-name="Path 900" class="cls-2" d="M105.676,192.881s1.645-1.645,4.936-4.7a1.228,1.228,0,0,1,1.645,0l1.645,1.645c.47.7.47,1.175.235,1.41s-4.7,4.466-4.936,4.7a1.4,1.4,0,0,1-1.88,0c-.47-.47-.94-.94-1.175-.94C104.736,193.586,105.676,192.881,105.676,192.881Z" transform="translate(-45.039 -187.867)"/>
      <path id="Path_901" data-name="Path 901" class="cls-2" d="M136.188,193.255l-1.175,36.664a1.907,1.907,0,0,1-1.88,2.115c-.705,0-3.055.47-3.29.47-1.645.235-1.41-.94-1.645-1.645-.47-.7-11.751-35.489-11.751-36.194-.235-1.175,0-1.645,1.41-1.88a19.531,19.531,0,0,0,3.055-.47c1.175-.235,1.41.47,1.645,1.645.235.94,7.051,24.443,7.286,24.913s.705.47.705,0-.47-24.913-.47-24.913-.235-2.82.94-3.055a42.577,42.577,0,0,1,4.466-.705C136.423,190.2,136.188,191.375,136.188,193.255Z" transform="translate(-30.19 -184.716)"/>
      <path id="Path_902" data-name="Path 902" class="cls-2" d="M153.175,227.11c0-2.82-1.175-29.379-1.41-32.9-.235-4.7-.7-5.406-2.585-5.406-1.175,0-15.982,1.645-17.157,1.645-3.055.235-2.82,4-2.82,4s.94,31.729.94,33.609c.235,2.585,1.41,3.761,3.055,3.761,1.175,0,15.747-1.41,16.687-1.41C153.645,230.165,153.175,227.11,153.175,227.11Zm-7.521-1.41s-8.226.705-8.461.47c0,0-1.41.235-1.41-2.115V221.7s-.94-21.153-.705-25.148a1.691,1.691,0,0,1,1.41-1.645c1.41-.47,5.171-.47,7.756-.705a1.676,1.676,0,0,1,1.88,1.645s1.41,27.028,1.645,27.263C147.535,223.584,147.77,225.464,145.654,225.7Z" transform="translate(-12.864 -186.606)"/>
      <path id="Path_903" data-name="Path 903" class="cls-2" d="M161.937,191.463a2.717,2.717,0,0,0-3.055-3.055c-4,.235-12.927.705-13.4.705-2.585,0-2.585,3.76-2.585,3.76s1.88,29.614,2.35,34.784c.235,1.88.235,2.115,1.645,2.115h2.35c1.41,0,.94-1.175.94-1.41s-.47-5.641-.47-5.641c0-1.175-.47-5.641-.47-7.991h0v-.47c0-.235,0-.47.235-.235l8.226,13.867a1.906,1.906,0,0,0,1.645,1.175h2.82s.94,0,.235-1.645c-.47-1.41-9.871-18.1-9.871-18.1s-.47-.705.47-.705h5.876a2.676,2.676,0,0,0,2.585-3.055V192.4h0C161.937,192.4,161.937,191.933,161.937,191.463Zm-5.876,11.516a45.365,45.365,0,0,1-5.406.235c-1.645,0-1.88,0-2.115-1.175a39.5,39.5,0,0,1-.235-7.051s0-1.175.7-1.175c1.175,0,4-.235,6.111-.235.47,0,1.41.235,1.645,1.645,0,.47.235,6.581.235,6.581S157.237,202.98,156.062,202.98Z" transform="translate(5.638 -187.154)"/>
      <path id="Path_904" data-name="Path 904" class="cls-2" d="M154.021,225.94l5.641-35.959a1.924,1.924,0,0,1,2.115-1.88h3.29c1.41,0,1.175.94,1.645,1.645.235.7,7.051,36.429,7.051,37.134,0,1.175,0,1.645-1.645,1.645h-3.055c-1.175,0-1.41-.7-1.41-1.88,0-.94-4-24.913-4-25.383s-.47-.47-.705-.235c-.235.47-2.585,24.443-2.585,24.443s0,2.82-1.41,3.055c-.47,0-4.465.235-4.465.235C153.551,228.995,153.786,227.82,154.021,225.94Z" transform="translate(20.37 -187.552)"/>
      <path id="Path_905" data-name="Path 905" class="cls-1" d="M172.115,194.64s6.346-.94,17.862,0c0,0,2.585,0,2.82,1.41a10.236,10.236,0,0,1,0,2.82c0,1.175-.94,1.645-2.115,1.41-6.581-.94-18.332,0-19.272-.235a1.316,1.316,0,0,1-1.175-1.41c0-.705-.235-2.35-.235-2.82C170.47,194.64,172.115,194.64,172.115,194.64Z" transform="translate(42.23 -179.285)"/>
      <path id="Path_906" data-name="Path 906" class="cls-1" d="M194.472,188.7s12.456.705,13.4.94c.47,0,2.82,0,2.585,5.406-.235,4.7,0,11.281-.47,14.807,0,.705-.47,2.585-3.29,2.35-.94,0-6.346-.705-8.7-.235-.705,0-1.175.235-1.41,1.175a12.637,12.637,0,0,0-.235,3.76c-.235,3.525,0,4.231-.235,4.936,0,1.645.47,2.585,1.645,2.585.47,0,5.876.47,8.226.47,2.115,0,2.115,1.41,2.115,1.645a7.835,7.835,0,0,1,0,2.35c0,.47,0,1.645-1.645,1.41-.7,0-11.751-.94-13.866-.94-.235,0-2.115.235-1.88-2.82.235-4.7.47-14.1.94-17.392a2.822,2.822,0,0,1,2.82-2.585h8.7c.47,0,1.41.235,1.175-1.41v-9.636c0-.705-.47-1.645-1.175-1.645-1.41-.235-9.636-.705-10.341-.705-1.175-.235-.705-1.88-.47-3.055A2.124,2.124,0,0,1,194.472,188.7Z" transform="translate(70.169 -186.741)"/>
      <path id="Path_907" data-name="Path 907" class="cls-1" d="M206,230.144c.94,0,15.042,1.41,16.217,1.41,1.645,0,2.82-.94,2.82-3.76.235-1.645,1.175-32.669,1.175-32.669s.47-3.525-2.585-3.76c-.94,0-15.512-1.645-16.687-1.645-2.115-.235-2.35.705-2.585,5.171-.235,3.29-1.645,28.908-1.645,31.729C202.711,226.618,202.241,229.909,206,230.144Zm2.35-6.581c0-.235,1.645-26.558,1.645-26.793a1.6,1.6,0,0,1,1.88-1.645c2.585.235,6.111.235,7.521.705a1.876,1.876,0,0,1,1.41,1.41c.235,4-.94,24.443-.94,24.443a8.817,8.817,0,0,1-.235,2.35c0,2.35-1.41,1.88-1.41,1.88-.235,0-8.226-.47-8.226-.47A1.473,1.473,0,0,1,208.352,223.563Z" transform="translate(86.373 -185.41)"/>
      <path id="Path_908" data-name="Path 908" class="cls-1" d="M217.723,231.664s-1.645,0-1.41-2.35c.7-5.406,4-36.429,4.465-36.9.705-1.41,1.175-1.175,4-.705,0,0,1.645.235,1.41,1.41,0,.235-3.055,35.724-3.055,36.429,0,.47-.235,2.82-1.41,2.585A17.761,17.761,0,0,1,217.723,231.664Z" transform="translate(104.735 -183.17)"/>
      <path id="Path_909" data-name="Path 909" class="cls-1" d="M238.547,200.539c-2.82-.47-11.986-2.115-12.221-2.115s-2.35-.235-2.115-2.115c0-.7,0-.235.47-2.585,0,0,.235-1.645,1.41-1.41,3.055.47,19.742,2.82,19.977,3.055a2.936,2.936,0,0,1,1.88,4.231c-.235.235-15.982,31.494-16.217,31.964s-.94,2.115-2.35,1.88a21.926,21.926,0,0,1-3.29-.47s-2.115-.47-1.175-2.35c1.645-3.291,12.457-24.208,14.337-28.673C239.722,202.184,240.662,200.774,238.547,200.539Z" transform="translate(115.405 -181.894)"/>
      <g id="Group_167" data-name="Group 167" transform="translate(394.32 16.765)">
        <path id="Path_910" data-name="Path 910" class="cls-2" d="M257.831,199.628a2.462,2.462,0,0,0-.705-1.41c-.235-.235-2.82.94-2.82,1.41a23.732,23.732,0,0,0-.705,4c0,.94,3.761-1.41,4.231-1.41C258.536,201.743,258.066,200.568,257.831,199.628Z" transform="translate(-239.207 -190.697)"/>
        <path id="Path_911" data-name="Path 911" class="cls-2" d="M259.982,200.82s0-.47-1.41,0c-1.645.47-4,1.645-4.23,1.645-.94.47-.94.705-.94,1.175-.235.705-.235,1.175,0,1.175,0,0,0,.705,1.175,0,1.175-.47,3.525-.94,4.936-1.645a1.279,1.279,0,0,0,.705-1.175C260.452,201.525,260.452,201.29,259.982,200.82Z" transform="translate(-239.713 -187.423)"/>
        <path id="Path_912" data-name="Path 912" class="cls-2" d="M258.762,202.389a7.487,7.487,0,0,0,0-2.35c-.47-1.175-1.88-3.055-2.585-2.35l-2.115,2.115a51.9,51.9,0,0,0-4.7,5.406c-.235.47-.94,1.645-.47,2.585a59.317,59.317,0,0,0,6.111,8.7c.94.94,1.175-.47,1.175-.705C256.412,214.14,258.527,203.329,258.762,202.389Z" transform="translate(-245.779 -191.578)"/>
        <path id="Path_913" data-name="Path 913" class="cls-2" d="M258.391,199.7c0-1.175-1.645-4.7-2.115-4.7s-2.35,1.645-3.29,2.82a1.782,1.782,0,0,0-.47.94c-.235.94,1.175,1.88,1.88,2.82.47.705.94.235,1.175.235C256.51,201.346,258.391,200.641,258.391,199.7Z" transform="translate(-240.707 -195)"/>
        <path id="Path_914" data-name="Path 914" class="cls-2" d="M250.8,211.3" transform="translate(-242.987 -172.99)"/>
        <path id="Path_915" data-name="Path 915" class="cls-2" d="M261.666,202.718a53.357,53.357,0,0,0-5.171,1.88,3.539,3.539,0,0,0-1.645,2.115c-.235,1.41-1.175,5.641-1.175,5.641s-1.645,7.756-2.115,10.106a2.188,2.188,0,0,0,0,1.41c2.115.47,3.29-2.35,7.521-7.051a18.52,18.52,0,0,0,4.7-7.991,11.461,11.461,0,0,0-.705-4.7C263.076,203.658,262.841,202.483,261.666,202.718Z" transform="translate(-242.102 -184.62)"/>
        <path id="Path_916" data-name="Path 916" class="cls-2" d="M248.238,203.015a1.75,1.75,0,0,0-.705,1.645c-.235,1.88.235,3.29,1.88,7.991s3.29,8.7,4.465,10.106c.47.705,1.175,0,1.175-.235.94-3.29,1.175-6.346,1.41-7.051a3.627,3.627,0,0,0-.235-2.585,111.225,111.225,0,0,0-6.581-9.166C248.943,202.78,248.238,203.015,248.238,203.015Z" transform="translate(-247.476 -184.213)"/>
        <g id="Group_166" data-name="Group 166" transform="translate(6.638 39.656)">
          <path id="Path_917" data-name="Path 917" class="cls-2" d="M250.77,216.872h0c-.235,0-.47-.47-.47-.705v-3.525c0-.235,0-.705.47-.705a2.532,2.532,0,0,1,1.88.47.863.863,0,0,1,.235.705l-1.41,3.29C251.24,216.637,251.005,216.872,250.77,216.872Z" transform="translate(-250.3 -211.873)"/>
        </g>
      </g>
    </g>
  </g>
</svg>
