<svg xmlns="http://www.w3.org/2000/svg" viewBox="-137 -165 78.468 81.855">
  <defs>
    <style>
      .cls-1 {
        fill: #fff;
        fill-rule: evenodd;
      }
    </style>
  </defs>
  <g id="Group_170" data-name="Group 170" transform="translate(-137 -165)">
    <path id="Path_918" data-name="Path 918" class="cls-1" d="M48.831,41.34a3.58,3.58,0,0,0,1.694-.282,5.857,5.857,0,0,0,2.823-1.694A4.245,4.245,0,0,0,53.064,34a6.665,6.665,0,0,0-2.54-1.694,4.931,4.931,0,0,0-4.8.847c-2.258,1.411-2.258,5.081-.282,6.774.565,1.129,1.976,1.411,3.387,1.411Zm-12.984-12.7H34.435c-1.694,0-3.669-.282-5.363-.282-.847,0-.847,0-1.129-1.129,0-.282-.282-.565-.282-.847s-.282-.282-.565-.282-.565,0-.565.282c-.282,0-.565.282-.847.282s-.282.282-.282.565c.282.847.565,1.976.847,2.823.282,1.411.565,2.54.847,3.952.282,1.129.565,2.54.847,3.669a49.966,49.966,0,0,0,6.492-.282c.282-2.823.847-5.645,1.411-8.75Zm42.339,3.669v4.234a17.5,17.5,0,0,1-1.129,6.492,16.682,16.682,0,0,1-1.694,3.952,2.131,2.131,0,0,1-1.976,1.129,8.241,8.241,0,0,1-2.54-.565L69.153,46.7a3.069,3.069,0,0,0-1.411-.282c-.282.282-.847.565-1.129.847A6.146,6.146,0,0,0,65.2,49.526a24.376,24.376,0,0,0-2.823,4.516c-.282.282-.565.847-.847,1.129-.282-.282-.847-.565-.847-.847V52.631a6.643,6.643,0,0,1,.565-2.258,30.536,30.536,0,0,0,0-5.081A8.024,8.024,0,0,0,60.121,41.9c-.282-.282-.282-.565-.565-.847a1.031,1.031,0,0,0-1.411-.565c-.565,0-1.129.282-1.694.282l-3.387,1.694a8.692,8.692,0,0,1-5.363.847,5.072,5.072,0,0,1-2.54-1.129c-.565-.282-.847-.847-1.411-1.129-1.129-.565-1.694-.565-2.54.565-.282.282-.565.847-.847,1.129a19.929,19.929,0,0,0-1.694,6.774,47.842,47.842,0,0,0-.282,6.492v2.258c-1.411-.282-2.54-.282-3.952-.565a2.562,2.562,0,0,1-1.976-.847h-.282c-.282.282-.847.282-1.129.565a4.267,4.267,0,0,1-2.258.565c-.282,0-.565-.282-.847-.282a16,16,0,0,1-3.669-2.258.276.276,0,0,1-.282-.282c-.847-.847-1.129-1.129-2.258-.565h0a1.8,1.8,0,0,1-1.694,0,7.075,7.075,0,0,1-1.976-1.129c-.565-.565-1.411-.847-1.976-1.694-.847-.847-1.694-1.976-2.54-2.823a13.58,13.58,0,0,0-2.54-3.1c-.847-.565-1.129-.565-1.694,0a3.752,3.752,0,0,1-1.976.847,9.326,9.326,0,0,1-3.952,0,2.714,2.714,0,0,1-2.258-2.54,2.545,2.545,0,0,0-.282-1.411,11.578,11.578,0,0,0-.282-3.1A42.279,42.279,0,0,0,0,33.437v-4.8c0-.847.282-1.976.282-2.823a18.257,18.257,0,0,1,1.129-3.669A2.34,2.34,0,0,1,3.669,21.3c.565,0,.847.282,1.411.565a7.484,7.484,0,0,1,1.694,1.411,7.484,7.484,0,0,0,1.694,1.411,5.233,5.233,0,0,0,1.976.565c.565,0,1.129-.565,1.694-.847a7.692,7.692,0,0,0,1.694-3.387c.282-.847.565-1.694.847-2.823a7.692,7.692,0,0,1,1.694-3.387,5.9,5.9,0,0,1,1.694-1.129,3.58,3.58,0,0,1,1.694-.282,1.7,1.7,0,0,1-.282,1.129,20.852,20.852,0,0,0,0,5.927,4.914,4.914,0,0,0,3.1,3.669,6.208,6.208,0,0,0,3.952.565,2.708,2.708,0,0,1,2.823.847,1.466,1.466,0,0,0,1.129.565,3.58,3.58,0,0,0,1.694.282h6.774c0-.565.282-.847.282-1.411.282-2.823.282-5.927.282-9.032a59,59,0,0,0-.282-7.056.276.276,0,0,1,.282-.282c.282-.282.847-.565,1.129-.847a30.85,30.85,0,0,1,4.234-2.258,15.756,15.756,0,0,0,2.258-1.411A2.134,2.134,0,0,1,48.266,3.8l2.54.847a45.667,45.667,0,0,1,5.081,2.823c.847.565,1.411,1.129,2.258,1.694.847.847,1.694,1.411,2.54,2.258s1.694,1.976,2.54,2.823c.847,1.129,1.694,2.54,2.54,3.669.847,1.411,1.411,2.823,2.258,4.234.282.282.282.565.565.847h.282l5.081-2.54c.282-.282.847-.282,1.129-.565.565-.282.847,0,1.129.282a6.17,6.17,0,0,1,.847,1.411,14,14,0,0,1,.847,3.669c.282,1.694.282,3.387.565,5.081a5.511,5.511,0,0,0-.282,1.976Z" transform="translate(0 6.926)"/>
    <path id="Path_919" data-name="Path 919" class="cls-1" d="M21.5,30.052c.282,0,.282-.282.282-.565a16.759,16.759,0,0,0-1.129-2.258c0-.282-.282-.282-.565,0A13.184,13.184,0,0,0,21.5,30.052Zm-.847,1.411c-.847-1.411-1.411-2.823-2.258-4.516.847-.282,1.411-.565,2.258-.847a1.037,1.037,0,0,1,.847.282,15.127,15.127,0,0,1,1.411,3.1.541.541,0,0,1-.282.847,7.075,7.075,0,0,1-1.976,1.129Z" transform="translate(33.535 47.569)"/>
    <path id="Path_920" data-name="Path 920" class="cls-1" d="M2.611,23.023h0c.282.282.282.282.565.282.847-.282,1.694-.847,2.54-1.129.282,0,.282-.282,0-.565-1.129.565-1.976.847-3.1,1.411ZM1.2,22.176c1.411-.565,3.1-1.411,4.516-1.976l.847,1.694c.282.565,0,.847-.565,1.129-.847.565-1.976.847-2.823,1.411-.565.282-.847,0-1.129-.282s-.282-.565-.565-.847c.282-.565,0-.847-.282-1.129Z" transform="translate(2.187 36.816)"/>
    <path id="Path_921" data-name="Path 921" class="cls-1" d="M14.111,28.047a10.583,10.583,0,0,1-.282,3.1.276.276,0,0,0,.282-.282v-2.54c.282,0,.282-.282,0-.282ZM12.982,27.2a6.215,6.215,0,0,1,2.258.282c.282,0,.565.282.565.847a13.742,13.742,0,0,1-.282,3.387.607.607,0,0,1-.565.565H12.7a30.677,30.677,0,0,1,.282-5.081Z" transform="translate(23.147 49.574)"/>
    <path id="Path_922" data-name="Path 922" class="cls-1" d="M16.911,27.947a12,12,0,0,1,.565,3.1c.282,0,.282-.282.282-.565a8.241,8.241,0,0,0-.565-2.54ZM15.5,27.382c.847,0,1.411-.282,1.976-.282s.847.282,1.129.847c.282,1.129.282,1.976.565,3.1,0,.565,0,.847-.565.847-.847.282-1.411.282-2.258.565q-.423-2.964-.847-5.081Z" transform="translate(28.25 49.392)"/>
    <path id="Path_923" data-name="Path 923" class="cls-1" d="M7.5,24.029l.847.847A3.9,3.9,0,0,1,7.5,26a7.484,7.484,0,0,1-1.694,1.411c-.565.565-1.129.565-1.411.282-.565-.282-1.129-1.129-.847-1.694a.985.985,0,0,1,.282-.565c.847-.847,1.976-1.694,2.823-2.54l.847.847c-.565.565-1.129.847-1.411,1.411-.565.282-.847.847-1.411,1.129a.276.276,0,0,1-.282.282h.282C5.242,26,6.089,25.44,6.653,24.876l.847-.847Z" transform="translate(6.331 41.737)"/>
    <path id="Path_924" data-name="Path 924" class="cls-1" d="M6.276,29.363c-.282-.282-.565-.282-.847-.565v-.282a16.717,16.717,0,0,1,1.129-1.694c-.565.565-1.129.847-1.411,1.411-.282-.282-.565-.282-.847-.565A43.41,43.41,0,0,0,7.687,24c.282.282.565.565.847.565a13.761,13.761,0,0,0-.847,1.976h0L9.1,25.129c.282.282.565.565.847.565a22.561,22.561,0,0,0-3.669,3.669Z" transform="translate(7.837 43.742)"/>
    <path id="Path_925" data-name="Path 925" class="cls-1" d="M11.24,27.529c0,.282-.282.565-.282,1.129.282.282.565,0,.565-.282s.282-.565-.282-.847Zm-.847,3.952c.282-.565.282-1.129.565-1.694,0-.282,0-.282-.282-.565-.282.565-.282,1.129-.565,1.694-.282.282-.282.565-.565.282-.282,0-.565-.282-.847-.282h0c.565-1.411,1.129-3.1,1.694-4.516a13.761,13.761,0,0,1,1.976.847.985.985,0,0,1,.282.565,2.115,2.115,0,0,1-.282,1.411c0,.282-.282.282-.565.282a.859.859,0,0,1,0,1.129c-.282.565-.282.847-.565,1.411-.282-.282-.565-.282-.847-.565Z" transform="translate(15.856 48.116)"/>
    <path id="Path_926" data-name="Path 926" class="cls-1" d="M25.594,23.294c.282-.282,0-.565-.282-.565s-.282-.282-.565,0c.282.282.565.282.847.565Zm3.669.282c-.282.282-.282.565-.565,1.129a6.17,6.17,0,0,1-1.411-.847c-.282,0-.282-.282-.565,0,.565.282,1.411.847,1.976,1.129a2.14,2.14,0,0,0-.565,1.129L23.9,23.576c.565-.565.847-1.129,1.411-1.694a1.037,1.037,0,0,1,.847-.282c.282.282.847.565,1.129.847v.565a.859.859,0,0,1,1.129,0,3.493,3.493,0,0,0,.847.565Z" transform="translate(43.56 39.368)"/>
    <path id="Path_927" data-name="Path 927" class="cls-1" d="M26.669,26.269v-.282l-.282-.282a15.657,15.657,0,0,0-2.258-1.694h-.282a.276.276,0,0,0,.282.282c.847.565,1.411,1.129,2.258,1.694.282,0,.282,0,.282.282ZM24.694,22.6c.282,0,.282,0,.565.282.847.565,1.411,1.129,2.258,1.694.565.282.565.847.282,1.411-.565,1.129-1.411,1.411-2.54.565a12.276,12.276,0,0,1-1.976-1.694c-.282,0-.282-.282-.282-.847A2.818,2.818,0,0,1,24.129,22.6c.282.282.282.282.565,0Z" transform="translate(41.919 41.19)"/>
    <path id="Path_928" data-name="Path 928" class="cls-1" d="M24.158,23.5c1.129,1.411,1.976,2.54,3.1,3.952l-1.411,1.411A47.885,47.885,0,0,1,21.9,26.04a3.9,3.9,0,0,1,1.129-.847,15.656,15.656,0,0,0,2.258,1.694h0a14.137,14.137,0,0,0-1.976-2.258,3.9,3.9,0,0,1,.847-1.129Z" transform="translate(39.914 42.831)"/>
    <path id="Path_929" data-name="Path 929" class="cls-1" d="M8.376,25.2a2.14,2.14,0,0,0,1.129.565c-.565.847-.847,1.694-1.411,2.54h0a14.137,14.137,0,0,1,1.976-2.258c.282.282.847.565,1.129.847-1.129,1.411-2.258,2.54-3.1,3.669A5.9,5.9,0,0,1,6.4,29.434c.565-1.129,1.129-2.54,1.976-4.234Z" transform="translate(11.665 45.929)"/>
    <path id="Path_930" data-name="Path 930" class="cls-1" d="M15.794,28.429h0a3.58,3.58,0,0,1-.282,1.694h.565c0-.565-.282-1.129-.282-1.694Zm.282,2.823h-.565V32.1H14.1v-.847c0-1.129.282-2.54.282-3.669,0-.282,0-.282.282-.282h1.694c.282,1.694.847,3.1,1.129,4.8H16.076c.282-.282,0-.565,0-.847Z" transform="translate(25.698 49.756)"/>
    <path id="Path_931" data-name="Path 931" class="cls-1" d="M27.887,22.094c-.565-.282-1.129-.282-1.694-.565h0c.565.282.847.565,1.411.847a.276.276,0,0,0,.282-.282Zm2.258-.565c-.282.282-.282.847-.565,1.129-.282,0-.565-.282-.847-.282a.276.276,0,0,1-.282.282c.282.282.565.282.847.565-.282.282-.282.847-.565,1.129L24.5,21.811a6.17,6.17,0,0,1,.847-1.411h.282c.282,0,.847.282,1.129.282.847.282,2.258.565,3.387.847Z" transform="translate(44.653 37.181)"/>
    <path id="Path_932" data-name="Path 932" class="cls-1" d="M4.44,24.323a4.955,4.955,0,0,0,1.411-1.129h0l-1.694.847c.282,0,.282,0,.282.282ZM6.7,21.5l.847,1.694a21.314,21.314,0,0,1-3.952,3.1,2.14,2.14,0,0,1-.565-1.129c.282-.282.565-.282.565-.565l-.282-.282c-.282,0-.282.282-.565.282H2.465c-.282-.282-.282-.565-.565-.847C3.594,22.911,5,22.347,6.7,21.5Z" transform="translate(3.463 39.185)"/>
    <path id="Path_933" data-name="Path 933" class="cls-1" d="M10.765,29.54c.282,0,.847.282,1.129.282a1.037,1.037,0,0,1-.282.847v.282h.282a.529.529,0,0,0,0-.847l-.847-.847c-.565-.565-.282-1.129,0-1.694A1.127,1.127,0,0,1,12.176,27h.565a1.183,1.183,0,0,1,.847,1.694c-.282,0-.565-.282-1.129-.282v-.847a.276.276,0,0,0-.282.282v.847l.847.847a3.117,3.117,0,0,1,0,2.258.985.985,0,0,1-.565.282,1.866,1.866,0,0,1-1.694-.282,1.466,1.466,0,0,1-.565-1.129c.282-.565.282-.847.565-1.129Z" transform="translate(18.59 49.21)"/>
    <path id="Path_934" data-name="Path 934" class="cls-1" d="M10.9,28.058c-.282,0-.565-.282-.847-.282,0,.282-.282.565-.282.847.282,0,.565.282.847.282,0,.282-.282.565-.282.847-.282,0-.282-.282-.565-.282H9.494c0,.282-.282.565-.282.847.282,0,.565.282.847.282a.985.985,0,0,1-.282.565c0,.282-.282.282-.282,0L7.8,30.316c.847-1.411,1.411-2.823,2.258-4.516,0,.565.565.847,1.129,1.411,0,.282-.282.565-.282.847Z" transform="translate(14.216 47.023)"/>
    <path id="Path_935" data-name="Path 935" class="cls-1" d="M21,25.811c.565-.565,1.129-.847,1.694-1.411.282.282.282.565.565.847l-.565.565c.282.282.282.565.565.565l.565-.565c.282.282.282.565.565.565l-.565.565.847.847c.282-.282.565-.282.847-.565.282.282.282.565.565.847-.565.565-1.129.847-1.694,1.411A43.41,43.41,0,0,1,21,25.811Z" transform="translate(38.274 44.471)"/>
    <path id="Path_936" data-name="Path 936" class="cls-1" d="M23.652,28.787c.282.282.282.565.565.847a12.272,12.272,0,0,1-1.976,1.129L19.7,26.529c.565-.282,1.129-.847,1.694-1.129.282.282.282.565.565.847a1.037,1.037,0,0,1-.847.282h0c.282.847.282.847,1.129.282.282.282.282.565.565.847-.282.282-.565.282-.565.565.282.282.282.565.565.847.282,0,.565-.282.847-.282Z" transform="translate(35.905 46.294)"/>
    <path id="Path_937" data-name="Path 937" class="cls-1" d="M19.9,29.423c-.282,0-.565.282-.847.282,0,.282.282.565.282,1.129.282,0,.565-.282.847-.282,0,.282.282.565.282.847-.847.282-1.411.282-2.258.565-.565-1.694-.847-3.1-1.411-4.8.565-.282,1.411-.282,1.976-.565,0,.282.282.565.282.847-.282,0-.565.282-.847.282,0,.282.282.565.282.847a1.037,1.037,0,0,0,.847-.282c.282.565.565.847.565,1.129Z" transform="translate(30.619 48.481)"/>
    <path id="Path_938" data-name="Path 938" class="cls-1" d="M6.529,29.6A3.9,3.9,0,0,0,5.4,28.752c1.129-1.411,1.976-2.54,3.1-3.952a3.9,3.9,0,0,0,1.129.847,48.253,48.253,0,0,0-3.1,3.952Z" transform="translate(9.842 45.2)"/>
    <path id="Path_939" data-name="Path 939" class="cls-1" d="M13.111,32.181A2.545,2.545,0,0,1,11.7,31.9c.282-1.694.565-3.1.847-4.8a1.7,1.7,0,0,1,1.129.282,27.809,27.809,0,0,0-.565,4.8Z" transform="translate(21.324 49.392)"/>
    <path id="Path_940" data-name="Path 940" class="cls-1" d="M21.168,25.711c-.282-.847,0-1.129.847-1.411-.282.282,0,1.129-.847,1.411Z" transform="translate(38.388 44.289)"/>
    <path id="Path_941" data-name="Path 941" class="cls-1" d="M26,4.229c-.282.565-.847,1.129-1.129,1.694h0c.565-.282.847-.565,1.411-.847.282-.282.282-.282.565,0a3.9,3.9,0,0,0,1.129.847c-1.129,1.411-2.258,2.54-3.387,3.952l-.847-.847c.565-.847,1.411-1.411,1.976-2.258h0c-.847.565-1.411,1.411-2.258,1.976-.565-.282-.847-.282-.847-.565.565-.847.847-1.694,1.411-2.54h0A14.137,14.137,0,0,1,22.047,7.9L21.2,7.052c1.129-1.411,2.258-2.54,3.387-3.952A4.955,4.955,0,0,0,26,4.229Z" transform="translate(38.639 5.65)"/>
    <path id="Path_942" data-name="Path 942" class="cls-1" d="M22.287,3.011a24.822,24.822,0,0,1-1.694,2.823c.282.282.565,0,.565-.282C21.44,4.7,22,4.14,22.287,3.294c.282,0,.282-.282,0-.282ZM18.9,6.116c.847-1.411,1.694-3.1,2.54-4.516.565.282.847.565,1.411.847.282,0,.282.282.565.282.565.282.565.565.282,1.129a16.191,16.191,0,0,1-1.129,1.976c0,.282-.282.565-.282.847-.282.847-.847.847-1.411.565A4.549,4.549,0,0,0,18.9,6.116Z" transform="translate(34.447 2.916)"/>
    <path id="Path_943" data-name="Path 943" class="cls-1" d="M7.74,7.089a.276.276,0,0,0,.282-.282L7.74,6.525C7.176,5.96,6.611,5.113,6.047,4.549H5.765v.282A14.137,14.137,0,0,0,7.74,7.089ZM7.458,8.218a1.037,1.037,0,0,1-.847-.282.276.276,0,0,1-.282-.282C5.765,6.807,5.2,6.525,4.918,5.678c-.847-.847-.565-1.694.565-2.258.847-.282,1.129-.282,1.694.282A12.276,12.276,0,0,0,8.87,5.678c.282.565.565.847.282,1.411A1.548,1.548,0,0,1,7.458,8.218Z" transform="translate(8.066 5.895)"/>
    <path id="Path_944" data-name="Path 944" class="cls-1" d="M14.111,2.84h0V4.252a.276.276,0,0,0,.282.282l.282-.282v-3.1a.282.282,0,1,0-.565,0V2.84Zm-1.411,0V1.429A1.034,1.034,0,0,1,13.829.3H15.24c.282,0,.565.565.565.847v3.1c0,.565-.282.847-.847,1.129h-.847A1.333,1.333,0,0,1,12.7,3.969c0-.282,0-.847,0-1.129Z" transform="translate(23.147 0.547)"/>
    <path id="Path_945" data-name="Path 945" class="cls-1" d="M12.987,2.565c-.565,0-.847.282-1.411.282,0-.282-.282-.847-.282-1.129s0-.282-.282-.282c-.282.282-.282.282-.282.565.282.847.565,1.976.847,2.823l.282.282s.282-.282,0-.282a1.037,1.037,0,0,0-.282-.847c.282,0,.847-.282,1.129-.282.847.847.847,1.411-.565,2.258.282,0,.565,0,.565.282a.607.607,0,0,1-.565.565,1.037,1.037,0,0,1-.847-.282h.847a.276.276,0,0,0-.282-.282.276.276,0,0,1-.282-.282h-.565a.748.748,0,0,1-.847-.847A10.029,10.029,0,0,1,9.6,2.283a1.037,1.037,0,0,1,.282-.847A2.2,2.2,0,0,1,12.14.872c.282,0,.282.282.282.565.282.282.282.565.565,1.129Z" transform="translate(17.497 1.387)"/>
    <path id="Path_946" data-name="Path 946" class="cls-1" d="M20.04,4.568c.282-.565.282-1.129.565-1.694h0l-.847,1.694Zm1.976-2.823c-.282,1.694-.847,3.387-1.129,5.081-.565-.282-.847-.282-1.411-.565,0-.282.282-.565.282-.847-.282,0-.282,0-.565-.282,0,.282-.282.565-.282.847-.565-.282-.847-.282-1.411-.565l.847-1.694c.565-.282.565-.565.847-.847l.847-1.694s.282-.282.282,0c.565.282,1.129.282,1.694.565Z" transform="translate(31.895 1.924)"/>
    <path id="Path_947" data-name="Path 947" class="cls-1" d="M28.416,8.211h0a4.012,4.012,0,0,1-1.694.565A.276.276,0,0,0,27,9.058c.282,0,.847-.565,1.411-.847ZM25.876,9.9a.276.276,0,0,0-.282-.282c-.282,0-.565.282-.847.282-.282-.282-.565-.847-.847-1.129.565-.282,1.411-.565,1.976-.847A19.46,19.46,0,0,1,28.7,6.8c.282,0,.282,0,.565.282a3.9,3.9,0,0,1,.847,1.129L25.876,11.6a2.14,2.14,0,0,1-.565-1.129l.565-.565Z" transform="translate(43.56 12.394)"/>
    <path id="Path_948" data-name="Path 948" class="cls-1" d="M10.358,4.487c-.282-.565-.565-.847-.847-1.411h0c.282.565.282,1.129.565,1.694a.276.276,0,0,0,.282-.282Zm2.258,1.129c-.565.282-.847.565-1.411.565,0-.282-.282-.565-.282-.847a.276.276,0,0,0-.282.282c-.282.282,0,.565,0,.847-.282.282-.847.282-1.129.565A34.126,34.126,0,0,1,8.1,1.947,13.761,13.761,0,0,1,10.076,1.1c.847,1.694,1.694,3.1,2.54,4.516Z" transform="translate(14.763 2.005)"/>
    <path id="Path_949" data-name="Path 949" class="cls-1" d="M3.276,8.211h0c.565.282.847.847,1.411,1.129a.276.276,0,0,1,.282-.282L3.276,8.211Zm-1.976,0A4.955,4.955,0,0,0,2.429,6.8c1.694.565,3.1,1.129,4.8,1.694,0,.565-.282.847-.565,1.411-.282-.282-.565-.282-.847-.565l-.282.282.847.847A3.9,3.9,0,0,0,5.534,11.6L1.3,8.211Z" transform="translate(2.369 12.394)"/>
    <path id="Path_950" data-name="Path 950" class="cls-1" d="M16.958,1.994a17.987,17.987,0,0,0-.565,1.976h.565V1.994Zm1.129,3.952a2.545,2.545,0,0,1-1.411-.282V4.816h-.282c0,.282-.282.565-.282.847A2.545,2.545,0,0,1,14.7,5.381c.565-1.694.847-3.387,1.411-5.081.565,0,1.129.282,1.694.282l.282.282V5.945Z" transform="translate(26.792 0.547)"/>
    <path id="Path_951" data-name="Path 951" class="cls-1" d="M13.176,3.787c-.282-.565-.282-1.129-.565-1.694V3.787ZM14.869,5.2a2.545,2.545,0,0,0-1.411.282c0-.282-.282-.565-.282-.847h-.565v.847a3.069,3.069,0,0,0-1.411.282V.682C11.765.682,12.329.4,12.894.4a.276.276,0,0,1,.282.282c.565,1.411,1.129,3.1,1.694,4.516Z" transform="translate(20.413 0.729)"/>
    <path id="Path_952" data-name="Path 952" class="cls-1" d="M27.069,8.68a3.9,3.9,0,0,1-.847-1.129c.282-.282.565-.282.847-.565a.985.985,0,0,0,.282-.565c-.282-.282-.282,0-.565,0a4.955,4.955,0,0,0-1.411,1.129l-.847.847V8.68h.282c.282-.282.565-.282.847-.565A3.9,3.9,0,0,1,26.5,9.245c-.565.282-1.129.847-1.694.847C24.247,9.809,23.4,9.245,23.4,8.4a1.037,1.037,0,0,1,.282-.847c.847-.565,1.694-1.411,2.54-1.976.565-.282.847,0,1.411.282a1.6,1.6,0,0,1,0,2.823Z" transform="translate(42.648 9.949)"/>
    <path id="Path_953" data-name="Path 953" class="cls-1" d="M8.477,5.123c.565-.282.847-.282,1.129-.565.847.847.847,1.694.282,2.258a1.357,1.357,0,0,1-1.694.565.607.607,0,0,1-.565-.565A15.656,15.656,0,0,1,5.937,4.558a1.282,1.282,0,0,1,0-1.411A3.049,3.049,0,0,1,7.912,2.3c.282,0,.282.282.565.282a3.9,3.9,0,0,0,.847,1.129,3.9,3.9,0,0,0-1.129.847H7.912c-.282-.565-.282-.847-.565-1.129H7.066v.282A5.9,5.9,0,0,0,8.195,5.4c.282.282.282.565.565.847a.276.276,0,0,1,.282.282V6.252a1.466,1.466,0,0,0-.565-1.129Z" transform="translate(10.434 4.192)"/>
    <path id="Path_954" data-name="Path 954" class="cls-1" d="M18.74,3.394c0-.282.282-.847.282-1.129V1.983l-.282.282c-.282.847-.565,1.694-.847,2.823v.565a.276.276,0,0,0,.282-.282,2.134,2.134,0,0,0,.282-1.129,12.225,12.225,0,0,0,1.411.282c-.282.565-.282.847-.565,1.129,0,.282-.282.282-.565.282a2.344,2.344,0,0,1-2.258-.565,1.037,1.037,0,0,1-.282-.847c.282-1.129.565-1.976.847-3.1,0-.282.565-.565.847-.847a1.357,1.357,0,0,1,1.694.565,1.037,1.037,0,0,1,.282.847,2.545,2.545,0,0,1-.282,1.411c0,.282-.282,0-.847,0Z" transform="translate(29.526 0.84)"/>
    <path id="Path_955" data-name="Path 955" class="cls-1" d="M6.2,7.45l.565.565h.282V7.733C6.763,7.45,6.48,7.168,6.2,7.45H5.069A2.321,2.321,0,0,1,3.375,6.321c-.282-.565,0-.847.282-1.411h0c.847-.847,1.411-.847,2.258,0-.282.565-.282.847-.565,1.129H5.069l-.282-.282H4.5v.282a.985.985,0,0,0,.565.282c.282,0,.565-.282.847-.282A2.523,2.523,0,0,1,8.174,7.168v.847A1.987,1.987,0,0,1,6.763,9.144H5.916c-.282-.282-.282-.565-.565-.847L6.2,7.45Z" transform="translate(5.939 7.792)"/>
    <path id="Path_956" data-name="Path 956" class="cls-1" d="M4.634,9.5,5.48,8.65l.565.565h.282V8.933c-.282-.565-.565-.847-1.129-.847-.282,0-.847.282-1.129.282-.565.282-1.129,0-1.694-.565-.282-.565,0-.847.282-1.411V6.11c.847-.847,1.411-.847,2.258,0l-.847.847-.282-.282H3.5v.282a1.037,1.037,0,0,0,.847.282c.282,0,.565-.282,1.129-.282h.847c.282,0,.565.282.847.565.565.282.565,1.411,0,1.976h0a1.759,1.759,0,0,1-2.54,0Z" transform="translate(4.116 9.979)"/>
    <path id="Path_957" data-name="Path 957" class="cls-1" d="M23.123,4.658c.282.282.565.282.847.565-.282.847-.565.847-1.129.282-.282.282-.282.565-.565.847a.985.985,0,0,0,.282.565c0,.282-.282.565-.282.847-.565-.282-1.411-.847-1.976-1.129.847-1.411,1.976-2.823,2.823-4.234A12.273,12.273,0,0,0,25.1,3.529c-.282.282-.282.565-.565.847-.282,0-.565-.282-.847-.282l-.565.565Z" transform="translate(36.998 4.374)"/>
    <path id="Path_958" data-name="Path 958" class="cls-1" d="M27.4,5.475c-1.411,1.129-2.54,2.258-3.952,3.387L22.6,8.015c.565-.282.847-.847,1.129-1.129.847-.565,1.411-1.411,2.258-1.976.565-.282.282-.565.847,0,.282,0,.282.282.565.565Z" transform="translate(41.19 8.356)"/>
    <path id="Path_959" data-name="Path 959" class="cls-1" d="M9.54,6.781C8.694,5.369,7.847,3.958,7,2.265c.282-.282.847-.282,1.129-.565a.276.276,0,0,1,.282.282c.565,1.411,1.411,2.54,1.976,3.952a.276.276,0,0,0,.282.282,2.14,2.14,0,0,1-1.129.565Z" transform="translate(12.758 3.098)"/>
    <path id="Path_960" data-name="Path 960" class="cls-1" d="M13.258,0a.985.985,0,0,1,.565.282c0,.565-.282.565-.847.565h-.565c-.565,0-.565,0-.847.282-.282,0-.282,0-.565-.282A.748.748,0,0,1,11.847,0h.565q.847.423.847,0Z" transform="translate(20.048)"/>
    <path id="Path_961" data-name="Path 961" class="cls-1" d="M23.194,2.8c-.565,0-1.129.282-1.694-.282.847-.282,1.129-.282,1.694.282Z" transform="translate(39.185 4.254)"/>
  </g>
</svg>
